<svg width="259" height="175" viewBox="0 0 259 175" fill="none" xmlns="http://www.w3.org/2000/svg">
<path d="M12.3453 174.341C9.73906 174.341 7.69866 173.614 6.22409 172.161C4.74951 170.708 4.01222 168.73 4.01222 166.229V141.996H13.8885V165.317C13.8885 165.655 14.0085 165.942 14.2485 166.179C14.4886 166.381 14.7801 166.483 15.123 166.483H20.9356V174.341H12.3453ZM0 155.482V148.08H20.9356V155.482H0Z" fill="#32465D"/>
<path d="M24.8501 174.341V148.08H34.7264V174.341H24.8501ZM29.7882 145.393C28.348 145.393 27.1134 144.886 26.0847 143.872C25.0559 142.824 24.5415 141.608 24.5415 140.222C24.5415 138.802 25.0559 137.586 26.0847 136.572C27.1134 135.524 28.348 135 29.7882 135C31.2285 135 32.4631 135.524 33.4918 136.572C34.5206 137.586 35.035 138.802 35.035 140.222C35.035 141.608 34.5206 142.824 33.4918 143.872C32.4631 144.886 31.2285 145.393 29.7882 145.393Z" fill="#32465D"/>
<path d="M52.8505 174.341C50.0728 174.341 47.6037 173.8 45.4433 172.719C43.2829 171.603 41.5854 170.065 40.3509 168.105C39.1163 166.145 38.4991 163.864 38.4991 161.261C38.4991 158.659 39.1163 156.377 40.3509 154.417C41.5854 152.423 43.2829 150.868 45.4433 149.753C47.6037 148.638 50.0728 148.08 52.8505 148.08H58.0972V156.09H53.7249C52.6276 156.09 51.6674 156.327 50.8444 156.8C50.0556 157.239 49.4384 157.847 48.9926 158.625C48.5468 159.402 48.3239 160.281 48.3239 161.261C48.3239 162.241 48.5468 163.137 48.9926 163.948C49.4384 164.725 50.0556 165.351 50.8444 165.824C51.6674 166.263 52.6276 166.483 53.7249 166.483H58.0972V174.341H52.8505Z" fill="#32465D"/>
<path d="M61.5167 164.506V158.169H76.0739V164.506H61.5167Z" fill="#32465D"/>
<path d="M91.2113 174.341C88.6051 174.341 86.5647 173.614 85.0901 172.161C83.6155 170.708 82.8782 168.73 82.8782 166.229V141.996H92.7545V165.317C92.7545 165.655 92.8745 165.942 93.1145 166.179C93.3546 166.381 93.6461 166.483 93.989 166.483H99.8016V174.341H91.2113ZM78.866 155.482V148.08H99.8016V155.482H78.866Z" fill="#32465D"/>
<path d="M114.225 175C111.996 175 109.99 174.442 108.207 173.327C106.424 172.212 105.018 170.674 103.989 168.714C102.96 166.719 102.446 164.404 102.446 161.768C102.446 158.963 103.08 156.496 104.349 154.366C105.618 152.203 107.367 150.513 109.596 149.297C111.859 148.08 114.483 147.471 117.466 147.471C120.381 147.471 122.918 148.063 125.079 149.246C127.239 150.395 128.92 152.017 130.12 154.113C131.354 156.174 131.972 158.574 131.972 161.312V174.341H122.61V170.437H122.301C121.855 171.35 121.255 172.161 120.501 172.871C119.781 173.547 118.906 174.071 117.877 174.442C116.849 174.814 115.631 175 114.225 175ZM117.26 166.483C118.186 166.483 118.992 166.263 119.678 165.824C120.398 165.384 120.947 164.776 121.324 163.999C121.735 163.188 121.941 162.275 121.941 161.261C121.941 160.281 121.735 159.419 121.324 158.676C120.947 157.932 120.398 157.341 119.678 156.901C118.992 156.462 118.186 156.242 117.26 156.242C116.369 156.242 115.563 156.462 114.843 156.901C114.122 157.341 113.557 157.932 113.145 158.676C112.768 159.419 112.579 160.281 112.579 161.261C112.579 162.275 112.768 163.188 113.145 163.999C113.557 164.776 114.122 165.384 114.843 165.824C115.563 166.263 116.369 166.483 117.26 166.483Z" fill="#32465D"/>
<path d="M150.152 174.341C147.374 174.341 144.905 173.8 142.745 172.719C140.584 171.603 138.887 170.065 137.652 168.105C136.418 166.145 135.801 163.864 135.801 161.261C135.801 158.659 136.418 156.377 137.652 154.417C138.887 152.423 140.584 150.868 142.745 149.753C144.905 148.638 147.374 148.08 150.152 148.08H155.399V156.09H151.027C149.929 156.09 148.969 156.327 148.146 156.8C147.357 157.239 146.74 157.847 146.294 158.625C145.848 159.402 145.625 160.281 145.625 161.261C145.625 162.241 145.848 163.137 146.294 163.948C146.74 164.725 147.357 165.351 148.146 165.824C148.969 166.263 149.929 166.483 151.027 166.483H155.399V174.341H150.152Z" fill="#32465D"/>
<path d="M158.818 164.506V158.169H173.375V164.506H158.818Z" fill="#32465D"/>
<path d="M188.513 174.341C185.907 174.341 183.866 173.614 182.392 172.161C180.917 170.708 180.18 168.73 180.18 166.229V141.996H190.056V165.317C190.056 165.655 190.176 165.942 190.416 166.179C190.656 166.381 190.948 166.483 191.291 166.483H197.103V174.341H188.513ZM176.168 155.482V148.08H197.103V155.482H176.168Z" fill="#32465D"/>
<path d="M214.356 174.949C211.681 174.949 209.229 174.375 207 173.226C204.806 172.076 203.039 170.471 201.702 168.409C200.399 166.314 199.747 163.914 199.747 161.21C199.747 158.507 200.399 156.124 201.702 154.062C203.039 152 204.823 150.395 207.052 149.246C209.281 148.063 211.733 147.471 214.407 147.471C217.082 147.471 219.517 148.063 221.712 149.246C223.906 150.395 225.655 152 226.959 154.062C228.262 156.124 228.913 158.507 228.913 161.21C228.913 163.914 228.262 166.314 226.959 168.409C225.655 170.471 223.889 172.076 221.66 173.226C219.466 174.375 217.031 174.949 214.356 174.949ZM214.356 166.229C215.282 166.229 216.105 166.01 216.825 165.57C217.545 165.131 218.094 164.54 218.471 163.796C218.883 163.019 219.088 162.14 219.088 161.16C219.088 160.18 218.883 159.318 218.471 158.574C218.094 157.831 217.545 157.239 216.825 156.8C216.105 156.36 215.282 156.141 214.356 156.141C213.43 156.141 212.607 156.36 211.887 156.8C211.167 157.239 210.601 157.831 210.189 158.574C209.778 159.318 209.572 160.18 209.572 161.16C209.572 162.14 209.778 163.019 210.189 163.796C210.601 164.54 211.167 165.131 211.887 165.57C212.607 166.01 213.43 166.229 214.356 166.229Z" fill="#32465D"/>
<path d="M247.632 174.341C244.649 174.341 241.991 173.834 239.659 172.82C237.327 171.806 235.475 170.336 234.104 168.409C232.766 166.449 232.098 164.066 232.098 161.261C232.098 158.185 232.766 155.634 234.104 153.606C235.441 151.578 237.173 150.057 239.299 149.043C241.459 147.995 243.723 147.471 246.089 147.471C248.524 147.471 250.701 147.978 252.622 148.992C254.576 149.973 256.119 151.392 257.251 153.251C258.417 155.11 259 157.341 259 159.943C259 160.585 258.966 161.329 258.897 162.174C258.829 162.985 258.726 163.678 258.588 164.252H242.231C242.368 164.827 242.625 165.317 243.003 165.722C243.38 166.094 243.894 166.365 244.546 166.534C245.197 166.703 245.935 166.787 246.758 166.787H256.274V174.341H247.632ZM241.768 158.878H249.895C249.895 158.473 249.844 158.084 249.741 157.712C249.638 157.341 249.467 157.003 249.227 156.698C249.021 156.36 248.764 156.073 248.455 155.837C248.146 155.566 247.769 155.363 247.323 155.228C246.912 155.093 246.449 155.025 245.935 155.025C245.283 155.025 244.7 155.127 244.186 155.33C243.706 155.532 243.294 155.803 242.951 156.141C242.608 156.479 242.334 156.884 242.128 157.357C241.957 157.831 241.837 158.338 241.768 158.878Z" fill="#32465D"/>
<g opacity="0.4">
<path d="M181.339 97.7103L158.747 120.303" stroke="#2C8DFF" stroke-width="8" stroke-linecap="round"/>
<path d="M158.747 97.7103L181.34 120.303" stroke="#2C8DFF" stroke-width="8" stroke-linecap="round"/>
</g>
<g opacity="0.6" filter="url(#filter0_d_70_9)">
<circle cx="11.2963" cy="11.2963" r="11.2963" transform="matrix(-1 0 0 1 138.511 12.261)" stroke="#FF2C2C" stroke-width="8" shape-rendering="crispEdges"/>
</g>
<g opacity="0.6" filter="url(#filter1_d_70_9)">
<circle cx="11.2963" cy="11.2963" r="11.2963" transform="matrix(-1 0 0 1 138.511 97.6467)" stroke="#FF2C2C" stroke-width="8" shape-rendering="crispEdges"/>
</g>
<g opacity="0.6" filter="url(#filter2_d_70_9)">
<circle cx="11.2963" cy="11.2963" r="11.2963" transform="matrix(-1 0 0 1 181.275 52.5939)" stroke="#FF2C2C" stroke-width="8" shape-rendering="crispEdges"/>
</g>
<g opacity="0.9">
<path d="M181.339 12.235L158.747 34.8276" stroke="#2C8DFF" stroke-width="8" stroke-linecap="round"/>
<path d="M158.747 12.235L181.34 34.8276" stroke="#2C8DFF" stroke-width="8" stroke-linecap="round"/>
</g>
<g opacity="0.9">
<path d="M96.5797 97.7103L73.9871 120.303" stroke="#2C8DFF" stroke-width="8" stroke-linecap="round"/>
<path d="M73.9872 97.7103L96.5798 120.303" stroke="#2C8DFF" stroke-width="8" stroke-linecap="round"/>
</g>
<g opacity="0.9">
<path d="M138.511 54.4532L115.919 77.0458" stroke="#2C8DFF" stroke-width="8" stroke-linecap="round"/>
<path d="M115.919 54.4532L138.511 77.0458" stroke="#2C8DFF" stroke-width="8" stroke-linecap="round"/>
</g>
<g opacity="0.1">
<path d="M148.28 3L148.28 125" stroke="black" stroke-width="6" stroke-linecap="round"/>
<path d="M106.86 3L106.86 125" stroke="black" stroke-width="6" stroke-linecap="round"/>
<path d="M68 44.7203L190 44.7203" stroke="black" stroke-width="6" stroke-linecap="round"/>
<path d="M68 86.1401L190 86.1401" stroke="black" stroke-width="6" stroke-linecap="round"/>
</g>
<defs>
<filter id="filter0_d_70_9" x="107.919" y="8.26099" width="38.5926" height="38.5926" filterUnits="userSpaceOnUse" color-interpolation-filters="sRGB">
<feFlood flood-opacity="0" result="BackgroundImageFix"/>
<feColorMatrix in="SourceAlpha" type="matrix" values="0 0 0 0 0 0 0 0 0 0 0 0 0 0 0 0 0 0 127 0" result="hardAlpha"/>
<feOffset dy="4"/>
<feGaussianBlur stdDeviation="2"/>
<feComposite in2="hardAlpha" operator="out"/>
<feColorMatrix type="matrix" values="0 0 0 0 0 0 0 0 0 0 0 0 0 0 0 0 0 0 0.25 0"/>
<feBlend mode="normal" in2="BackgroundImageFix" result="effect1_dropShadow_70_9"/>
<feBlend mode="normal" in="SourceGraphic" in2="effect1_dropShadow_70_9" result="shape"/>
</filter>
<filter id="filter1_d_70_9" x="107.919" y="93.6467" width="38.5926" height="38.5926" filterUnits="userSpaceOnUse" color-interpolation-filters="sRGB">
<feFlood flood-opacity="0" result="BackgroundImageFix"/>
<feColorMatrix in="SourceAlpha" type="matrix" values="0 0 0 0 0 0 0 0 0 0 0 0 0 0 0 0 0 0 127 0" result="hardAlpha"/>
<feOffset dy="4"/>
<feGaussianBlur stdDeviation="2"/>
<feComposite in2="hardAlpha" operator="out"/>
<feColorMatrix type="matrix" values="0 0 0 0 0 0 0 0 0 0 0 0 0 0 0 0 0 0 0.25 0"/>
<feBlend mode="normal" in2="BackgroundImageFix" result="effect1_dropShadow_70_9"/>
<feBlend mode="normal" in="SourceGraphic" in2="effect1_dropShadow_70_9" result="shape"/>
</filter>
<filter id="filter2_d_70_9" x="150.683" y="48.5939" width="38.5926" height="38.5926" filterUnits="userSpaceOnUse" color-interpolation-filters="sRGB">
<feFlood flood-opacity="0" result="BackgroundImageFix"/>
<feColorMatrix in="SourceAlpha" type="matrix" values="0 0 0 0 0 0 0 0 0 0 0 0 0 0 0 0 0 0 127 0" result="hardAlpha"/>
<feOffset dy="4"/>
<feGaussianBlur stdDeviation="2"/>
<feComposite in2="hardAlpha" operator="out"/>
<feColorMatrix type="matrix" values="0 0 0 0 0 0 0 0 0 0 0 0 0 0 0 0 0 0 0.25 0"/>
<feBlend mode="normal" in2="BackgroundImageFix" result="effect1_dropShadow_70_9"/>
<feBlend mode="normal" in="SourceGraphic" in2="effect1_dropShadow_70_9" result="shape"/>
</filter>
</defs>
</svg>
