<svg width="281" height="167" viewBox="0 0 281 167" fill="none" xmlns="http://www.w3.org/2000/svg">
<path d="M23.384 75C18.52 75 14.712 73.624 11.96 70.872C9.208 68.12 7.832 64.376 7.832 59.64V13.752H26.264V57.912C26.264 58.552 26.488 59.096 26.936 59.544C27.384 59.928 27.928 60.12 28.568 60.12H39.416V75H23.384ZM0.344 39.288V25.272H39.416V39.288H0.344ZM46.7218 75V25.272H65.1538V75H46.7218ZM55.9378 20.184C53.2498 20.184 50.9458 19.224 49.0258 17.304C47.1058 15.32 46.1458 13.016 46.1458 10.392C46.1458 7.704 47.1058 5.4 49.0258 3.47999C50.9458 1.496 53.2498 0.503998 55.9378 0.503998C58.6258 0.503998 60.9298 1.496 62.8498 3.47999C64.7698 5.4 65.7298 7.704 65.7298 10.392C65.7298 13.016 64.7698 15.32 62.8498 17.304C60.9298 19.224 58.6258 20.184 55.9378 20.184ZM98.9788 75C93.7948 75 89.1868 73.976 85.1548 71.928C81.1228 69.816 77.9548 66.904 75.6508 63.192C73.3468 59.48 72.1948 55.16 72.1948 50.232C72.1948 45.304 73.3468 40.984 75.6508 37.272C77.9548 33.496 81.1228 30.552 85.1548 28.44C89.1868 26.328 93.7948 25.272 98.9788 25.272H108.771V40.44H100.611C98.5628 40.44 96.7708 40.888 95.2348 41.784C93.7628 42.616 92.6108 43.768 91.7788 45.24C90.9468 46.712 90.5308 48.376 90.5308 50.232C90.5308 52.088 90.9468 53.784 91.7788 55.32C92.6108 56.792 93.7628 57.976 95.2348 58.872C96.7708 59.704 98.5628 60.12 100.611 60.12H108.771V75H98.9788ZM161.103 75C156.239 75 152.431 73.624 149.679 70.872C146.927 68.12 145.551 64.376 145.551 59.64V13.752H163.983V57.912C163.983 58.552 164.207 59.096 164.655 59.544C165.103 59.928 165.647 60.12 166.287 60.12H177.135V75H161.103ZM138.063 39.288V25.272H177.135V39.288H138.063ZM204.054 76.248C199.894 76.248 196.15 75.192 192.822 73.08C189.494 70.968 186.87 68.056 184.95 64.344C183.03 60.568 182.07 56.184 182.07 51.192C182.07 45.88 183.254 41.208 185.622 37.176C187.99 33.08 191.254 29.88 195.414 27.576C199.638 25.272 204.534 24.12 210.102 24.12C215.542 24.12 220.278 25.24 224.31 27.48C228.342 29.656 231.478 32.728 233.718 36.696C236.022 40.6 237.174 45.144 237.174 50.328V75H219.702V67.608H219.126C218.294 69.336 217.174 70.872 215.766 72.216C214.422 73.496 212.79 74.488 210.87 75.192C208.95 75.896 206.678 76.248 204.054 76.248ZM209.718 60.12C211.446 60.12 212.95 59.704 214.23 58.872C215.574 58.04 216.598 56.888 217.302 55.416C218.07 53.88 218.454 52.152 218.454 50.232C218.454 48.376 218.07 46.744 217.302 45.336C216.598 43.928 215.574 42.808 214.23 41.976C212.95 41.144 211.446 40.728 209.718 40.728C208.054 40.728 206.55 41.144 205.206 41.976C203.862 42.808 202.806 43.928 202.038 45.336C201.334 46.744 200.982 48.376 200.982 50.232C200.982 52.152 201.334 53.88 202.038 55.416C202.806 56.888 203.862 58.04 205.206 58.872C206.55 59.704 208.054 60.12 209.718 60.12ZM271.104 75C265.92 75 261.312 73.976 257.28 71.928C253.248 69.816 250.08 66.904 247.776 63.192C245.472 59.48 244.32 55.16 244.32 50.232C244.32 45.304 245.472 40.984 247.776 37.272C250.08 33.496 253.248 30.552 257.28 28.44C261.312 26.328 265.92 25.272 271.104 25.272H280.896V40.44H272.736C270.688 40.44 268.896 40.888 267.36 41.784C265.888 42.616 264.736 43.768 263.904 45.24C263.072 46.712 262.656 48.376 262.656 50.232C262.656 52.088 263.072 53.784 263.904 55.32C264.736 56.792 265.888 57.976 267.36 58.872C268.896 59.704 270.688 60.12 272.736 60.12H280.896V75H271.104ZM23.384 165C18.52 165 14.712 163.624 11.96 160.872C9.208 158.12 7.832 154.376 7.832 149.64V103.752H26.264V147.912C26.264 148.552 26.488 149.096 26.936 149.544C27.384 149.928 27.928 150.12 28.568 150.12H39.416V165H23.384ZM0.344 129.288V115.272H39.416V129.288H0.344ZM71.615 166.152C66.623 166.152 62.047 165.064 57.887 162.888C53.791 160.712 50.495 157.672 47.999 153.768C45.567 149.8 44.351 145.256 44.351 140.136C44.351 135.016 45.567 130.504 47.999 126.6C50.495 122.696 53.823 119.656 57.983 117.48C62.143 115.24 66.719 114.12 71.711 114.12C76.703 114.12 81.247 115.24 85.343 117.48C89.439 119.656 92.703 122.696 95.135 126.6C97.567 130.504 98.783 135.016 98.783 140.136C98.783 145.256 97.567 149.8 95.135 153.768C92.703 157.672 89.407 160.712 85.247 162.888C81.151 165.064 76.607 166.152 71.615 166.152ZM71.615 149.64C73.343 149.64 74.879 149.224 76.223 148.392C77.567 147.56 78.591 146.44 79.295 145.032C80.063 143.56 80.447 141.896 80.447 140.04C80.447 138.184 80.063 136.552 79.295 135.144C78.591 133.736 77.567 132.616 76.223 131.784C74.879 130.952 73.343 130.536 71.615 130.536C69.887 130.536 68.351 130.952 67.007 131.784C65.663 132.616 64.607 133.736 63.839 135.144C63.071 136.552 62.687 138.184 62.687 140.04C62.687 141.896 63.071 143.56 63.839 145.032C64.607 146.44 65.663 147.56 67.007 148.392C68.351 149.224 69.887 149.64 71.615 149.64ZM133.718 165C128.15 165 123.19 164.04 118.838 162.12C114.486 160.2 111.03 157.416 108.47 153.768C105.974 150.056 104.726 145.544 104.726 140.232C104.726 134.408 105.974 129.576 108.47 125.736C110.966 121.896 114.198 119.016 118.166 117.096C122.198 115.112 126.422 114.12 130.838 114.12C135.382 114.12 139.446 115.08 143.03 117C146.678 118.856 149.558 121.544 151.67 125.064C153.846 128.584 154.934 132.808 154.934 137.736C154.934 138.952 154.87 140.36 154.742 141.96C154.614 143.496 154.422 144.808 154.166 145.896H123.638C123.894 146.984 124.374 147.912 125.078 148.68C125.782 149.384 126.742 149.896 127.958 150.216C129.174 150.536 130.55 150.696 132.086 150.696H149.846V165H133.718ZM122.774 135.72H137.942C137.942 134.952 137.846 134.216 137.654 133.512C137.462 132.808 137.142 132.168 136.694 131.592C136.31 130.952 135.83 130.408 135.254 129.96C134.678 129.448 133.974 129.064 133.142 128.808C132.374 128.552 131.51 128.424 130.55 128.424C129.334 128.424 128.246 128.616 127.286 129C126.39 129.384 125.622 129.896 124.982 130.536C124.342 131.176 123.83 131.944 123.446 132.84C123.126 133.736 122.902 134.696 122.774 135.72Z" fill="#32465D"/>
</svg>
