<svg width="454" height="72" viewBox="0 0 454 72" fill="none" xmlns="http://www.w3.org/2000/svg">
<path d="M21.86 70C17.3 70 13.73 68.71 11.15 66.13C8.57001 63.55 7.28001 60.04 7.28001 55.6V12.58H24.56V53.98C24.56 54.58 24.77 55.09 25.19 55.51C25.61 55.87 26.12 56.05 26.72 56.05H36.89V70H21.86ZM0.26001 36.52V23.38H36.89V36.52H0.26001Z" fill="#32465D"/>
<path d="M43.7392 70V23.38H61.0191V70H43.7392ZM52.3792 18.61C49.8591 18.61 47.6992 17.71 45.8992 15.91C44.0992 14.05 43.1992 11.89 43.1992 9.43C43.1992 6.91 44.0992 4.75 45.8992 2.95C47.6992 1.09 49.8591 0.160004 52.3792 0.160004C54.8992 0.160004 57.0592 1.09 58.8591 2.95C60.6591 4.75 61.5592 6.91 61.5592 9.43C61.5592 11.89 60.6591 14.05 58.8591 15.91C57.0592 17.71 54.8992 18.61 52.3792 18.61Z" fill="#32465D"/>
<path d="M92.7301 70C87.8701 70 83.5501 69.04 79.7701 67.12C75.9901 65.14 73.0201 62.41 70.8601 58.93C68.7001 55.45 67.6201 51.4 67.6201 46.78C67.6201 42.16 68.7001 38.11 70.8601 34.63C73.0201 31.09 75.9901 28.33 79.7701 26.35C83.5501 24.37 87.8701 23.38 92.7301 23.38H101.91V37.6H94.2601C92.3401 37.6 90.6601 38.02 89.2201 38.86C87.8401 39.64 86.7601 40.72 85.9801 42.1C85.2001 43.48 84.8101 45.04 84.8101 46.78C84.8101 48.52 85.2001 50.11 85.9801 51.55C86.7601 52.93 87.8401 54.04 89.2201 54.88C90.6601 55.66 92.3401 56.05 94.2601 56.05H101.91V70H92.7301Z" fill="#32465D"/>
<path d="M107.893 52.54V41.29H133.363V52.54H107.893Z" fill="#32465D"/>
<path d="M159.848 70C155.288 70 151.718 68.71 149.138 66.13C146.558 63.55 145.268 60.04 145.268 55.6V12.58H162.548V53.98C162.548 54.58 162.758 55.09 163.178 55.51C163.598 55.87 164.108 56.05 164.708 56.05H174.878V70H159.848ZM138.248 36.52V23.38H174.878V36.52H138.248Z" fill="#32465D"/>
<path d="M200.115 71.17C196.215 71.17 192.705 70.18 189.585 68.2C186.465 66.22 184.005 63.49 182.205 60.01C180.405 56.47 179.505 52.36 179.505 47.68C179.505 42.7 180.615 38.32 182.835 34.54C185.055 30.7 188.115 27.7 192.015 25.54C195.975 23.38 200.565 22.3 205.785 22.3C210.885 22.3 215.325 23.35 219.105 25.45C222.885 27.49 225.825 30.37 227.925 34.09C230.085 37.75 231.165 42.01 231.165 46.87V70H214.785V63.07H214.245C213.465 64.69 212.415 66.13 211.095 67.39C209.835 68.59 208.305 69.52 206.505 70.18C204.705 70.84 202.575 71.17 200.115 71.17ZM205.425 56.05C207.045 56.05 208.455 55.66 209.655 54.88C210.915 54.1 211.875 53.02 212.535 51.64C213.255 50.2 213.615 48.58 213.615 46.78C213.615 45.04 213.255 43.51 212.535 42.19C211.875 40.87 210.915 39.82 209.655 39.04C208.455 38.26 207.045 37.87 205.425 37.87C203.865 37.87 202.455 38.26 201.195 39.04C199.935 39.82 198.945 40.87 198.225 42.19C197.565 43.51 197.235 45.04 197.235 46.78C197.235 48.58 197.565 50.2 198.225 51.64C198.945 53.02 199.935 54.1 201.195 54.88C202.455 55.66 203.865 56.05 205.425 56.05Z" fill="#32465D"/>
<path d="M262.974 70C258.114 70 253.794 69.04 250.014 67.12C246.234 65.14 243.264 62.41 241.104 58.93C238.944 55.45 237.864 51.4 237.864 46.78C237.864 42.16 238.944 38.11 241.104 34.63C243.264 31.09 246.234 28.33 250.014 26.35C253.794 24.37 258.114 23.38 262.974 23.38H272.154V37.6H264.504C262.584 37.6 260.904 38.02 259.464 38.86C258.084 39.64 257.004 40.72 256.224 42.1C255.444 43.48 255.054 45.04 255.054 46.78C255.054 48.52 255.444 50.11 256.224 51.55C257.004 52.93 258.084 54.04 259.464 54.88C260.904 55.66 262.584 56.05 264.504 56.05H272.154V70H262.974Z" fill="#32465D"/>
<path d="M278.137 52.54V41.29H303.607V52.54H278.137Z" fill="#32465D"/>
<path d="M330.092 70C325.532 70 321.962 68.71 319.382 66.13C316.802 63.55 315.512 60.04 315.512 55.6V12.58H332.792V53.98C332.792 54.58 333.002 55.09 333.422 55.51C333.842 55.87 334.352 56.05 334.952 56.05H345.122V70H330.092ZM308.492 36.52V23.38H345.122V36.52H308.492Z" fill="#32465D"/>
<path d="M375.309 71.08C370.629 71.08 366.339 70.06 362.439 68.02C358.599 65.98 355.509 63.13 353.169 59.47C350.889 55.75 349.749 51.49 349.749 46.69C349.749 41.89 350.889 37.66 353.169 34C355.509 30.34 358.629 27.49 362.529 25.45C366.429 23.35 370.719 22.3 375.399 22.3C380.079 22.3 384.339 23.35 388.179 25.45C392.019 27.49 395.079 30.34 397.359 34C399.639 37.66 400.779 41.89 400.779 46.69C400.779 51.49 399.639 55.75 397.359 59.47C395.079 63.13 391.989 65.98 388.089 68.02C384.249 70.06 379.989 71.08 375.309 71.08ZM375.309 55.6C376.929 55.6 378.369 55.21 379.629 54.43C380.889 53.65 381.849 52.6 382.509 51.28C383.229 49.9 383.589 48.34 383.589 46.6C383.589 44.86 383.229 43.33 382.509 42.01C381.849 40.69 380.889 39.64 379.629 38.86C378.369 38.08 376.929 37.69 375.309 37.69C373.689 37.69 372.249 38.08 370.989 38.86C369.729 39.64 368.739 40.69 368.019 42.01C367.299 43.33 366.939 44.86 366.939 46.6C366.939 48.34 367.299 49.9 368.019 51.28C368.739 52.6 369.729 53.65 370.989 54.43C372.249 55.21 373.689 55.6 375.309 55.6Z" fill="#32465D"/>
<path d="M433.531 70C428.311 70 423.661 69.1 419.581 67.3C415.501 65.5 412.261 62.89 409.861 59.47C407.521 55.99 406.351 51.76 406.351 46.78C406.351 41.32 407.521 36.79 409.861 33.19C412.201 29.59 415.231 26.89 418.951 25.09C422.731 23.23 426.691 22.3 430.831 22.3C435.091 22.3 438.901 23.2 442.261 25C445.681 26.74 448.381 29.26 450.361 32.56C452.401 35.86 453.421 39.82 453.421 44.44C453.421 45.58 453.361 46.9 453.241 48.4C453.121 49.84 452.941 51.07 452.701 52.09H424.081C424.321 53.11 424.771 53.98 425.431 54.7C426.091 55.36 426.991 55.84 428.131 56.14C429.271 56.44 430.561 56.59 432.001 56.59H448.651V70H433.531ZM423.271 42.55H437.491C437.491 41.83 437.401 41.14 437.221 40.48C437.041 39.82 436.741 39.22 436.321 38.68C435.961 38.08 435.511 37.57 434.971 37.15C434.431 36.67 433.771 36.31 432.991 36.07C432.271 35.83 431.461 35.71 430.561 35.71C429.421 35.71 428.401 35.89 427.501 36.25C426.661 36.61 425.941 37.09 425.341 37.69C424.741 38.29 424.261 39.01 423.901 39.85C423.601 40.69 423.391 41.59 423.271 42.55Z" fill="#32465D"/>
</svg>
